# xmcd
#
# Track frame offsets: 
#        150
#        13753
#        26317
#        39701
#        55051
#        70763
#        82589
#        95415
#        107833
#        119908
#        133912
#        149049
#        161814
#        173489
#        185458
#
# Disc length: 2648 seconds
#
# Revision: 0
# Processed by: cddbd v1.5.2PL0 Copyright (c) Steve Scherf et al.
# Submitted via: ExactAudioCopy v1.1
#
DISCID=ce0a560f
DTITLE=Various Artist - Various ‎– Simply Blues
DYEAR=2012
DGENRE=Blues
TTITLE0=Sonny Boy Williamson I - Good Morning Little Schoolgirl
TTITLE1=Sonny Boy Williamson I - Shake The Boogie
TTITLE2=Walter Horton - Easy
TTITLE3=Big Joe Williams - Baby Please Don't Go
TTITLE4=Bill "Jazz" Gillum - I Want You By My Side
TTITLE5=Coy 'Hot Shot' Love - Wolf Call Boogie
TTITLE6=Doctor Ross - Come Back Baby
TTITLE7=Little Walter - Juke
TTITLE8=Little Walter - My Babe
TTITLE9=Buddy Guy and Junior Wells - Hoodoo Man
TTITLE10=Otis Spann - Standing Around Crying
TTITLE11=Sonny Boy Williamson II - Keep It To Yourself
TTITLE12=Sonny Boy Williamson II - Don't Start Me Talkin'
TTITLE13=Jimmy Reed - Honest I Do
TTITLE14=Junior Wells With Muddy Waters - Mannish Boy
EXTD=
EXTT0=
EXTT1=
EXTT2=
EXTT3=
EXTT4=
EXTT5=
EXTT6=
EXTT7=
EXTT8=
EXTT9=
EXTT10=
EXTT11=
EXTT12=
EXTT13=
EXTT14=
PLAYORDER=
